<?xml version="1.0" encoding="utf-8"?>
<!-- Generator: Adobe Illustrator 17.1.0, SVG Export Plug-In . SVG Version: 6.00 Build 0)  -->
<!DOCTYPE svg PUBLIC "-//W3C//DTD SVG 1.1//EN" "http://www.w3.org/Graphics/SVG/1.1/DTD/svg11.dtd">
<svg version="1.1" xmlns="http://www.w3.org/2000/svg" xmlns:xlink="http://www.w3.org/1999/xlink" x="0px" y="0px"
	 viewBox="0 0 161.951 243.325" enable-background="new 0 0 161.951 243.325" xml:space="preserve">
<g id="Layer_1" display="none">
	<g id="fpK3hM.tif" display="inline">
		
			<image overflow="visible" width="450" height="320" id="Layer_0_1_" xlink:href="14285EBB5057F0C3.png"  transform="matrix(1 0 0 1 -142.0717 -39.7362)">
		</image>
	</g>
</g>
<g id="Layer_2">
	<path d="M160.847,179.43c-3.859-8.362-13.937-2.144-13.937-2.144c-15.652,11.364-33.234,19.94-33.234,19.94
		c0.214-4.288-0.858-9.005-0.858-9.005c-1.501-2.144-0.214-11.149-0.214-12.436c0-14.109,2.787-32.162,2.787-32.162
		c3.645-7.504,3.216-20.155,3.216-20.155c0.858-10.077,4.932-13.508,4.932-13.508c10.721-21.227,8.362-28.946,8.362-28.946
		c1.501-18.654-2.573-18.868-2.573-18.868c-3.431-4.074-16.939-13.937-16.939-13.937C97.81,40.061,92.02,31.485,92.02,31.485
		C88.59,14.332,84.301,0.18,84.301,0.18c-2.573-1.501-3.326,6.861-3.326,6.861c-1.182,0.429-1.82,10.935-1.82,10.935
		c-1.715,1.715-4.288,11.364-4.288,11.364c0.214,3.216-6.218,7.076-6.218,7.076c-15.438,6.861-34.306,24.658-34.306,24.658
		c-5.146,3.859-3.859,9.22-3.859,9.22c-2.144,13.508,3.859,30.018,3.859,30.018c3.002,4.932,6.004,21.441,6.004,21.441
		c-1.286,11.793,4.074,25.515,4.074,25.515c-0.429,5.575,5.789,49.958,5.789,49.958c-14.151-4.288-32.162-19.083-32.162-19.083
		c-7.933-6.218-14.151-0.858-14.151-0.858c-6.861,2.573-2.573,12.865-2.573,12.865c5.789,14.794,36.236,36.021,36.236,36.021
		c-0.643,2.573,2.787,7.076,2.787,7.076s4.288,2.359,3.002,3.859c-1.286,1.501-6.218,2.359-6.218,2.359
		c-6.432,2.787,0,3.859,0,3.859h79.762c16.51-0.643,10.506-3.431,10.506-3.431c-3.431-0.643-6.218-4.503-6.218-4.503
		c2.144-0.429,4.717-7.29,4.717-7.29c24.658-18.868,31.519-30.876,31.519-30.876C164.921,186.077,160.847,179.43,160.847,179.43z
		 M104.775,94.482c0,0,0.416-28.257-8.311-35.945c0,0-9.765-13.09-25.972-3.74c0,0-8.519,8.311-6.857,21.193
		c0,0-2.798,5.944-2.175,10.723c0,0-0.887,9.118,0.436,11.785l-0.339,2.425c0,0-2.934-0.134-4.779-3.532
		c0,0-4.887-7.946-7.172-8.569c0,0,1.16-11.929-4.047-16.363c0,0-1.454-4.558,1.454-6.746c0,0,5.194-3.435,15.375-11.953
		c0,0,10.976-11.794,14.336-12.466c1.039-0.208,4.925-1.454,6.203-10.804c0,0,0.862,5.818,3.771,7.064
		c0,0,13.09,10.596,16.206,17.245c0,0,9.558,13.09,14.336,14.752c0,0,1.454,3.532,0,6.857c0,0-4.779,3.532-4.987,11.012l0,0
		C112.255,87.418,107.476,93.443,104.775,94.482z"/>
</g>
</svg>
